<?xml version="1.0" encoding="UTF-8" standalone="no"?>
<svg
   width="95.630333"
   height="17.537218"
   viewBox="0 0 95.630333 17.537218"
   fill="none"
   version="1.1"
   id="svg26"
   sodipodi:docname="lion.svg"
   xml:space="preserve"
   inkscape:version="1.2.2 (1:1.2.2+202212051550+b0a8486541)"
   xmlns:inkscape="http://www.inkscape.org/namespaces/inkscape"
   xmlns:sodipodi="http://sodipodi.sourceforge.net/DTD/sodipodi-0.dtd"
   xmlns="http://www.w3.org/2000/svg"
   xmlns:svg="http://www.w3.org/2000/svg"><defs
     id="defs30" /><sodipodi:namedview
     id="namedview28"
     pagecolor="#ffffff"
     bordercolor="#666666"
     borderopacity="1.0"
     inkscape:showpageshadow="2"
     inkscape:pageopacity="0.0"
     inkscape:pagecheckerboard="0"
     inkscape:deskcolor="#d1d1d1"
     showgrid="false"
     inkscape:zoom="3.9333333"
     inkscape:cx="46.652543"
     inkscape:cy="29.237288"
     inkscape:window-width="1366"
     inkscape:window-height="712"
     inkscape:window-x="0"
     inkscape:window-y="0"
     inkscape:window-maximized="1"
     inkscape:current-layer="svg26" /><g
     id="g1372"
     transform="translate(-7.3533958,-5.757751)"><path
       fill-rule="evenodd"
       clip-rule="evenodd"
       d="m 102.973,10.0909 c 0.047,-0.15007 -0.069,-0.18471 -0.182,-0.18471 h -0.299 -2.6464 c -0.132,0 -0.229,0.01924 -0.2833,0.18471 l -2.5961,8.3168 -0.1087,0.3502 c -0.031,0.0923 0.0233,0.1578 0.1087,0.177 0.0155,0.0039 0.031,0.0039 0.0465,0.0039 h 3.0193 c 0.124,0 0.198,-0.0462 0.244,-0.1809 l 2.216,-7.1199 z"
       fill="white"
       id="path2"
       style="fill:#da0000;fill-opacity:1" /><path
       fill-rule="evenodd"
       clip-rule="evenodd"
       d="m 95.802,16.9144 c -0.8848,0.3887 -2.1033,0.7774 -3.1084,0.6619 -0.4967,-0.0577 -0.9429,-0.2424 -1.2689,-0.6157 l 1.2689,-0.3118 4.2726,-1.0468 0.0931,-0.0231 C 97.0787,14.9054 97.1408,14.4167 96.9662,13.9356 96.8731,13.6777 96.7101,13.4237 96.4384,13.1428 96.128,12.8234 95.7438,12.5732 95.2898,12.4 94.828,12.223 94.3002,12.1345 93.7104,12.1345 c -0.3415,0 -0.6791,0.0307 -1.0168,0.0923 -0.2289,0.0424 -0.454,0.0962 -0.6829,0.1655 -0.5666,0.1732 -1.0983,0.4234 -1.5911,0.7389 -0.5006,0.3195 -0.9197,0.6851 -1.2651,1.1007 -0.1668,0.2001 -0.3065,0.4041 -0.4268,0.6119 -0.132,0.2271 -0.2329,0.4657 -0.3066,0.7043 -0.1863,0.6004 -0.1708,1.17 0.0427,1.7049 0.0698,0.1771 0.1591,0.3387 0.2639,0.4927 0.2173,0.3155 0.5122,0.5772 0.8847,0.7966 0.5472,0.3233 1.2069,0.4926 1.9792,0.4849 0.3608,-0.0038 0.7334,-0.0231 1.102,-0.0654 1.2884,-0.1424 2.5651,-0.5388 3.4383,-1.3778 0.6092,-0.585 -0.1009,-0.7697 -0.3299,-0.6696 z m -4.4472,-1.3932 c 0.0582,-0.1886 0.1708,-0.3618 0.3454,-0.5196 0.1746,-0.1578 0.3842,-0.2886 0.6248,-0.3848 0.1242,-0.0501 0.2484,-0.0885 0.3725,-0.1155 0.1126,-0.0231 0.2212,-0.0346 0.326,-0.0346 0.2367,0 0.4502,0.05 0.6481,0.1462 0.194,0.0962 0.3298,0.2348 0.4074,0.4041 0.0078,0.0193 0.0156,0.0385 0.0233,0.0616 l -1.4087,0.3926 -1.4086,0.3925 c 0.0194,-0.1347 0.0427,-0.2578 0.0698,-0.3425 z"
       fill="white"
       id="path4"
       style="fill:#da0000;fill-opacity:1" /><path
       fill-rule="evenodd"
       clip-rule="evenodd"
       d="m 89.0924,12.6463 c 0,0 0.2095,-0.2655 -0.0738,-0.3463 -0.0931,-0.027 -0.1901,-0.0501 -0.2871,-0.0732 -0.3609,-0.0769 -0.7529,-0.1154 -1.172,-0.1154 -0.6131,0 -1.2263,0.0847 -1.8394,0.2617 -0.6131,0.1732 -1.1875,0.4233 -1.723,0.7428 -0.5394,0.3232 -0.9973,0.6927 -1.366,1.1083 -0.1746,0.1925 -0.3221,0.3926 -0.4501,0.5966 -0.1475,0.2386 -0.26,0.481 -0.3454,0.7312 -0.2018,0.6042 -0.1863,1.1777 0.0466,1.7203 0.0776,0.1847 0.1785,0.3541 0.2988,0.5119 0.2367,0.3078 0.551,0.5695 0.943,0.7851 0.5937,0.3232 1.3077,0.4887 2.1421,0.4887 0.6946,0 1.3892,-0.1116 2.0761,-0.3309 0.2134,-0.0693 0.2522,-0.1771 0.2134,-0.3464 l -0.3803,-1.7126 c -0.031,-0.1309 -0.1241,-0.1809 -0.2561,-0.127 -0.2716,0.1039 -0.551,0.1578 -0.846,0.1578 -0.4152,0 -0.7218,-0.1193 -0.9197,-0.3541 -0.2018,-0.2386 -0.2483,-0.508 -0.1436,-0.8236 0.0621,-0.1886 0.1824,-0.3618 0.3726,-0.5234 0.1863,-0.1616 0.4152,-0.2886 0.6752,-0.3887 0.26,-0.0962 0.5123,-0.1501 0.7567,-0.1501 0.26,0 0.489,0.05 0.7024,0.1501 0.163,0.077 0.1747,0.05 0.2367,-0.0346 l 0.9818,-1.4125 z"
       fill="white"
       id="path6"
       style="fill:#da0000;fill-opacity:1" /><path
       fill-rule="evenodd"
       clip-rule="evenodd"
       d="m 82.6661,13.1043 c -0.0466,-0.227 -0.1979,-0.4464 -0.4812,-0.6042 -0.3492,-0.1963 -0.9003,-0.3002 -1.7075,-0.2232 -0.0931,0.0077 -1.2418,0.1693 -1.4319,0.1847 -0.4152,0.0308 -0.5666,-0.0539 -1.1487,-0.0692 -0.1746,0.0038 -0.4191,0.0077 -0.5627,0.0153 l -1.5212,4.8377 -0.454,1.4509 c -0.0504,0.1154 0.0621,0.2155 0.1979,0.2155 h 0.2561 2.569 c 0.132,0 0.2716,-0.177 0.2755,-0.1886 l 0.9624,-3.2212 c 0.1397,-0.3887 0.6753,-0.8698 1.5096,-0.5465 l 1.0516,-1.2662 z"
       fill="white"
       id="path8"
       style="fill:#da0000;fill-opacity:1" /><path
       fill-rule="evenodd"
       clip-rule="evenodd"
       d="m 76.263,12.9735 c 0.0272,-0.0924 0.031,-0.2194 -0.1125,-0.2463 -0.1203,0.0038 -0.2368,0.0077 -0.3415,0.0077 -1.4203,0 -1.4747,-0.4041 -2.9221,-0.5658 -0.1824,-0.0192 -0.3881,-0.0385 -0.6171,-0.05 -1.6725,-0.0924 -3.2519,0.966 -4.0785,2.1667 -0.1979,0.2848 -0.3609,0.5735 -0.4967,0.8583 -0.617,1.2969 -0.5976,2.5246 0,3.2558 0.1048,0.127 0.2212,0.2386 0.3609,0.331 1.5251,0.8813 3.2287,-0.4811 3.4693,-1.5894 -0.1281,0.1231 -2.4759,0.9621 -1.4785,-1.6049 0.3919,-1.0045 1.168,-1.778 2.0412,-1.5971 0.4113,0.0692 0.52,0.4656 0.4113,0.9275 l -1.1991,3.8947 c -0.0311,0.0731 0,0.1501 0.0892,0.1501 h 1.498 1.3116 c 0.1591,0 0.2018,-0.0462 0.2406,-0.1539 l 1.3699,-4.3451 z"
       fill="white"
       id="path10"
       style="fill:#da0000;fill-opacity:1" /><path
       fill-rule="evenodd"
       clip-rule="evenodd"
       d="m 63.8179,12.1153 c -0.4773,-0.0077 -0.8654,0.0077 -1.1991,0.0346 -0.5433,0.0423 -0.9352,0.1193 -1.3116,0.1886 -0.6132,0.1116 -0.6481,0.127 -1.8317,-0.0077 -0.1901,0.0154 -0.2794,0.1385 -0.3143,0.2232 l -2.7475,8.6477 c -0.0427,0.127 -0.0272,0.1809 0.1863,0.1809 0.6325,0 0.6597,-0.0039 1.2844,-0.0077 0.6209,-0.0039 0.9896,-0.0039 1.595,-0.0039 0.1164,0 0.2134,-0.0885 0.2289,-0.1693 l 0.8033,-2.617 c 0.0194,0.0115 0.0854,0.0385 0.1009,0.05 0.5278,0.2617 1.2729,0.3656 2.0063,0.3464 0.6908,-0.0154 1.3699,-0.1386 1.8549,-0.3348 1.2263,-0.5658 2.1654,-1.7319 2.4332,-3.0519 0.3997,-2.0051 -1.009,-3.4676 -3.089,-3.4791 z m 0.3221,3.2982 c -0.2251,1.1084 -0.7179,1.5279 -1.5212,1.6279 -0.3493,0.0423 -0.7606,0.027 -1.234,-0.0192 -0.035,-0.0039 -0.0699,-0.0077 -0.1048,-0.0154 -0.0117,-0.0116 -0.0194,-0.0193 -0.0233,-0.0231 l -0.0078,0.0192 c -0.2871,-0.0577 -0.1901,-0.1154 -0.1203,-0.3656 0.1902,-0.6658 0.4424,-1.2969 0.6365,-1.9627 0.1591,-0.3772 0.4618,-0.7043 0.8537,-0.8275 0.0776,-0.0231 0.1591,-0.0423 0.2445,-0.05 1.0943,-0.1347 1.4746,0.6273 1.2767,1.6164 z"
       fill="white"
       id="path12"
       style="fill:#da0000;fill-opacity:1" /><path
       fill-rule="evenodd"
       clip-rule="evenodd"
       d="m 38.2251,12.7195 c -0.4928,-0.2963 -1.1253,-0.4464 -1.8976,-0.4464 -0.6597,0 -1.8549,0.1847 -2.5767,0.431 -0.0621,0.0193 -0.3725,0.0269 -0.4618,0.0039 -0.5045,-0.0308 -0.3919,-0.2233 -1.7346,-0.1424 -0.0582,0.2039 -0.2445,0.7735 -0.4308,1.3585 -0.1863,0.5888 -0.388,1.1931 -0.4695,1.4586 L 29.68,18.527 29.5675,18.8887 c -0.0388,0.0886 0.0194,0.1694 0.1125,0.2002 0.0272,0.0077 0.0544,0.0154 0.0854,0.0154 0.9508,0 1.9054,0 2.8561,0 0.132,0 0.2251,-0.0193 0.2756,-0.1886 0.1823,-0.5888 0.3647,-1.1777 0.5432,-1.7665 0.1863,-0.6081 0.3765,-1.2162 0.5627,-1.8204 0.0388,-0.1193 0.1087,-0.2232 0.2135,-0.304 0.1047,-0.0808 1.0904,-0.1232 1.2146,-0.1232 0.1785,0 0.3376,0.1193 0.3764,0.1848 0.0311,0.0538 0.0893,0.2078 0.0427,0.3502 -0.3531,1.1507 -0.7179,2.3014 -1.071,3.4521 -0.0466,0.1347 0.0349,0.2156 0.1552,0.2156 0.9663,0 1.9403,0 2.9104,0 0.1514,0 0.2562,-0.0462 0.3105,-0.2079 l 0.5006,-1.6241 c 0.1746,-0.5657 0.3493,-1.1353 0.5239,-1.701 0.1785,-0.585 0.1863,-1.1353 0.031,-1.6395 -0.1591,-0.5119 -0.4889,-0.916 -0.9857,-1.2123 z"
       fill="white"
       id="path14"
       style="fill:#da0000;fill-opacity:1" /><path
       fill-rule="evenodd"
       clip-rule="evenodd"
       d="m 29.6801,15.7137 c 0.1397,-0.4657 0.1591,-0.9006 0.066,-1.3124 -0.0194,-0.0808 -0.0388,-0.1578 -0.066,-0.2347 -0.1087,-0.3233 -0.291,-0.6158 -0.5472,-0.8814 -0.3143,-0.3232 -0.7062,-0.5734 -1.1758,-0.7504 -0.4734,-0.1771 -1.009,-0.2656 -1.6104,-0.2656 -0.3377,0 -0.6714,0.027 -1.0051,0.0885 -0.2445,0.0424 -0.4851,0.1001 -0.7296,0.1732 -0.5782,0.1771 -1.1176,0.4272 -1.626,0.7466 -0.5083,0.3233 -0.9391,0.6928 -1.2883,1.1084 -0.3338,0.4003 -0.5782,0.8159 -0.7257,1.2585 -0.0078,0.0231 -0.0155,0.05 -0.0233,0.0731 -0.1824,0.5889 -0.1746,1.1431 0.0233,1.6703 0.0078,0.0193 0.0116,0.0346 0.0194,0.0539 0.2173,0.5426 0.6093,0.9737 1.1719,1.3008 0.5589,0.3271 1.2341,0.4888 2.018,0.4888 0.388,0 0.7722,-0.0385 1.1564,-0.1155 0.3958,-0.077 0.7878,-0.1963 1.1797,-0.3579 0.7761,-0.3156 1.4475,-0.7428 2.014,-1.2816 0.5627,-0.5349 0.943,-1.1161 1.1332,-1.7318 z m -2.926,0.0346 c -0.097,0.3195 -0.326,0.585 -0.6791,0.8005 -0.2367,0.1424 -0.4773,0.2386 -0.7295,0.2887 -0.1281,0.0231 -0.26,0.0384 -0.3959,0.0384 -0.3919,0 -0.6791,-0.1193 -0.8692,-0.354 -0.1902,-0.2386 -0.2329,-0.5119 -0.1358,-0.8275 0.0582,-0.1885 0.1746,-0.3617 0.3531,-0.5234 0.1785,-0.1616 0.3919,-0.2886 0.6364,-0.3887 0.1397,-0.0577 0.2794,-0.0962 0.4114,-0.1231 0.1008,-0.0193 0.2017,-0.027 0.3026,-0.027 0.2445,0 0.4618,0.0501 0.6597,0.1501 0.198,0.0962 0.3338,0.2348 0.4153,0.408 0.0815,0.1732 0.0931,0.3579 0.031,0.558 z"
       fill="white"
       id="path16"
       style="fill:#da0000;fill-opacity:1" /><path
       fill-rule="evenodd"
       clip-rule="evenodd"
       d="m 21.1194,12.7387 c 0.0426,-0.1308 -0.0466,-0.177 -0.1436,-0.1847 -0.0117,0 -0.0272,0 -0.0388,0 -0.9702,0 -1.9403,0 -2.9066,0 -0.1281,0 -0.2251,0.0193 -0.2755,0.1847 l -1.9287,6.1808 c -0.0349,0.1078 0.0427,0.1809 0.1552,0.1809 h 2.9765 c 0.1203,0 0.1979,-0.0462 0.2367,-0.1809 l 1.7812,-5.7151 z"
       fill="white"
       id="path18"
       style="fill:#da0000;fill-opacity:1" /><path
       fill-rule="evenodd"
       clip-rule="evenodd"
       d="m 19.5285,11.969 c 0.5239,0 1.009,-0.127 1.4436,-0.381 l 0.0194,-0.0115 C 21.43,11.3148 21.7172,10.9992 21.853,10.5681 21.9345,10.3026 21.919,10.1717 21.8297,9.97931 21.7288,9.76379 21.5542,9.6137 21.2981,9.48285 21.1972,9.42897 21.0885,9.38664 20.9721,9.352 20.8013,9.30197 20.6151,9.27118 20.4133,9.27118 c -0.3144,0 -0.652,0.02694 -1.0012,0.1424 -0.3415,0.11545 -0.5976,0.27324 -0.8499,0.49646 -0.2522,0.22326 -0.4191,0.36566 -0.5006,0.62736 -0.128,0.4041 -0.0504,0.7427 0.2251,1.016 0.2794,0.2771 0.6985,0.4156 1.2418,0.4156 z"
       fill="white"
       id="path20"
       style="fill:#da0000;fill-opacity:1" /><path
       fill-rule="evenodd"
       clip-rule="evenodd"
       d="M 15.2015,16.1178 H 11.7439 C 11.48,16.0716 11.317,15.6829 11.4141,15.425 l 1.7462,-5.0955 c 0.0699,-0.2001 -0.1241,-0.3001 -0.26,-0.3001 -1.1797,0 -1.7656,0 -2.96087,0 -0.17075,0 -0.32597,0.0615 -0.39582,0.2655 l -2.05285,5.8614 c -0.20955,0.5926 -0.15134,1.2969 -0.01164,1.7087 0.33373,0.9545 1.17971,1.2777 1.97911,1.27 l 4.88567,-0.0077 c 0.3648,-0.0077 0.6559,-1.0814 0.7839,-1.4355 0.1397,-0.4002 0.2794,-0.8428 0.3842,-1.2123 0.0737,-0.2694 -0.1164,-0.3617 -0.3105,-0.3617 z"
       fill="white"
       id="path22"
       style="fill:#da0000;fill-opacity:1" /><path
       fill-rule="evenodd"
       clip-rule="evenodd"
       d="m 56.5922,10.4719 c -0.0854,-0.127 -0.1979,-0.1385 -0.2406,-0.1308 -0.0116,0 -0.0155,0.0038 -0.0155,0.0038 -0.0039,0.0039 -0.0039,0.0039 -0.0272,0.0077 -0.1203,0.0039 -0.4462,0.0039 -0.7257,-0.0693 -0.2406,-0.05 -0.6053,-0.29245 -0.6053,-0.29245 0,0 0.2056,-0.36177 -0.0117,-0.51956 C 54.6519,9.23268 54.0349,9.03641 53.5032,8.57458 53.2316,8.31673 53.2005,8.17048 53.1113,7.99345 52.9173,7.93957 52.5758,7.97805 52.4555,8.40909 52.3313,8.23591 52.2382,8.17048 52.0247,8.07042 51.7376,7.9742 51.528,7.90493 51.1981,7.81256 50.9614,7.73174 50.7092,7.62783 50.554,7.52777 50.3017,7.7048 50.1659,7.88953 50.2358,8.22821 50.0883,8.1243 49.8283,8.04733 49.5023,8.12815 49.1957,8.15893 49.0405,8.16278 48.6835,8.22821 48.4778,8.2436 48.2683,8.22051 48.0665,8.17818 47.9229,8.43603 47.9074,8.85167 48.0742,9.07874 47.3602,9.02101 47.0963,9.26732 46.491,9.1865 c -0.2445,0.60037 0.2716,1.1892 0.4152,1.2931 -0.1746,0.0693 -0.4773,0.1116 -0.6132,0.1501 0.1281,0.8813 0.458,2.1321 0.9236,2.9442 0.4191,0.7119 0.7296,1.2315 1.2069,1.7318 0.031,-0.0269 0.1203,-0.1078 0.1708,-0.1462 0.3182,-0.2502 0.5238,-0.3926 0.9662,-0.5658 0.4191,-0.1693 1.1215,-0.2963 1.8433,-0.1462 1.5717,0.3156 2.7979,1.7126 2.6427,3.5676 -0.0892,0.6966 -0.3143,1.2354 -0.7451,1.7626 -0.1513,0.1655 -0.2871,0.3156 -0.4423,0.4426 -0.5356,0.4349 -1.2768,0.7197 -1.9792,0.7197 l -0.0271,-0.3772 c 0.1474,-0.0038 0.2406,-0.0115 0.3803,-0.0346 1.3621,-0.2386 2.3982,-1.4201 2.3982,-2.8364 0,-1.5856 -1.3039,-2.8826 -2.9066,-2.8826 -0.9119,0 -1.7269,0.4195 -2.2624,1.0776 C 48.148,15.5982 47.791,15.2403 47.6745,15.0979 47.3369,14.6822 46.8713,13.9818 46.6035,13.4661 46.2426,12.7349 45.9593,12.0498 45.7963,11.3609 45.6644,10.7913 45.579,10.2372 45.5169,9.7099 45.3772,8.45527 45.4471,6.77345 45.7614,5.87289 43.3282,5.11473 43.2351,8.29748 43.5339,9.67142 c 0.4502,1.93968 1.1448,3.16738 1.9171,4.15648 0.7644,0.9467 1.0167,1.1661 1.657,1.7434 0.3259,0.2886 0.6868,0.5772 1.0167,0.8158 -0.0621,0.1194 -0.1125,0.2464 -0.1591,0.3734 -0.2173,-0.1309 -0.4152,-0.2579 -0.617,-0.3964 -0.2018,-0.1386 -0.3881,-0.2771 -0.5511,-0.4003 -0.6674,-0.508 -1.2146,-0.9775 -1.8588,-1.7088 -0.3415,-0.3848 -0.6481,-0.7774 -0.9236,-1.2122 -0.7451,-1.1777 -1.2845,-2.594 -1.3233,-3.34829 -0.8886,0.07697 -1.1331,0.83899 -1.2379,1.26999 -0.2289,0.9545 0.4385,1.8974 0.8188,2.5093 0.7723,1.0506 1.8705,1.8665 2.6427,2.3399 0.8887,0.5119 1.0051,0.5927 1.7385,0.9044 0.4424,0.1963 0.815,0.3425 1.203,0.4811 -0.0233,0.1347 -0.0349,0.2694 -0.0388,0.4079 -0.4346,-0.0923 -0.8925,-0.2039 -1.331,-0.3386 -0.8344,-0.2617 -1.5135,-0.5234 -2.5535,-1.0969 -0.8265,-0.5118 -1.7074,-1.0583 -2.4176,-2.1051 -0.4812,0.4079 -0.4851,1.0468 -0.4269,1.4547 0.1281,0.8929 1.203,1.4779 1.6997,1.7627 1.1487,0.558 2.0218,0.6196 2.7786,0.7466 0.7916,0.0616 1.0904,0.0808 1.6686,0.0693 0.229,-0.0116 0.423,-0.0193 0.6093,-0.0308 0.0194,0.1424 0.0504,0.2809 0.0892,0.4156 -0.2134,0.0385 -0.4113,0.0962 -0.6558,0.127 -0.9546,0.1193 -2.0024,0.2117 -3.1161,-0.0231 -0.8227,-0.177 -1.8239,-0.4849 -2.3944,-0.9313 -0.1979,0.5696 -0.031,0.9814 0.1669,1.3354 0.3842,0.6851 1.2845,0.8736 1.8006,0.9391 0.9314,0.0769 1.6299,-0.0231 2.2741,-0.1925 0.5898,-0.1693 0.9662,-0.3001 1.4474,-0.4964 0.1164,-0.0462 0.4075,-0.1694 0.6597,-0.2848 0.066,0.1347 0.1475,0.2655 0.2329,0.3887 -0.163,0.1231 -0.3376,0.2232 -0.5278,0.3387 -0.6597,0.4118 -1.6376,0.7812 -2.34,0.8967 -0.6597,0.1116 -1.4126,0.1578 -2.0412,-0.0539 0.031,0.5542 0.2833,0.8698 0.5937,1.0237 0.4735,0.2348 1.1332,0.2078 1.5678,0.154 0.8033,-0.1809 1.331,-0.5542 1.7346,-0.8583 0.4618,-0.3463 0.6248,-0.5118 0.8809,-0.7812 0.1514,-0.1463 0.2872,-0.2887 0.3959,-0.4041 0.097,0.1 0.2017,0.1962 0.3104,0.2809 -0.0621,0.0847 -0.1358,0.1732 -0.2057,0.2617 -0.0427,0.05 -0.0853,0.1039 -0.1319,0.1617 -0.454,0.5695 -1.0167,1.0699 -1.6143,1.397 -0.5006,0.2732 -0.8887,0.4349 -1.5135,0.5118 0.229,0.3887 0.4696,0.5234 0.7257,0.585 0.52,0.1232 0.9857,-0.1732 1.3194,-0.331 0.5278,-0.354 0.8149,-0.7273 1.0594,-1.0929 0.1358,-0.2002 0.2328,-0.3503 0.3105,-0.4927 0.0814,-0.1424 0.1474,-0.2732 0.225,-0.4348 0.0272,-0.0539 0.1048,-0.2002 0.1669,-0.3272 0.1087,0.0616 0.2173,0.1155 0.3337,0.1655 -0.0349,0.1155 -0.0815,0.254 -0.1164,0.3464 -0.0194,0.0539 -0.0349,0.1 -0.0466,0.127 -0.2134,0.5234 -0.4423,0.8928 -0.8032,1.3662 -0.2678,0.3502 -0.7296,0.6697 -1.0944,0.789 0.1785,0.2655 0.4308,0.2963 0.6442,0.3156 0.4152,0.0346 0.7063,-0.1963 0.9158,-0.3926 0.3338,-0.3502 0.5394,-0.9236 0.6248,-1.2431 0.0427,-0.1847 0.0737,-0.3156 0.097,-0.4387 0.0233,-0.1232 0.0427,-0.2348 0.0621,-0.381 0.0117,-0.0847 0.0311,-0.2386 0.0505,-0.3733 0.0155,0.0038 0.0504,0.0115 0.0659,0.0154 0.0544,0.0115 0.1009,0.0231 0.1514,0.0346 0.0504,0.0077 0.1009,0.0154 0.1591,0.0231 0.0116,0.0693 -0.0039,0.1655 -0.0155,0.3348 0,0.0308 -0.0039,0.0616 -0.0039,0.0962 -0.0194,0.4311 -0.0466,0.9006 -0.1514,1.1854 -0.0853,0.2309 -0.2406,0.558 -0.5122,0.8274 0.2018,0.0962 0.4191,0.1001 0.6325,0.0424 0.4696,-0.1309 0.6209,-0.4311 0.6636,-0.6389 0.0932,-0.3117 0.0505,-0.6697 -0.0116,-1.0468 -0.0117,-0.0654 -0.0155,-0.1193 -0.0272,-0.1886 0.1126,-0.0077 0.1902,-0.0154 0.3726,-0.0308 2.1886,-0.3079 3.0889,-1.4124 3.5391,-2.8171 0.0543,-0.2194 0.0504,-0.1963 0.0776,-0.2848 0.0039,-0.0116 0.0466,-0.1116 0.0621,-0.1809 0.2561,0.0462 0.4889,-0.0847 0.3803,-0.4041 -0.0272,-0.0693 -0.0117,-0.1155 -0.1048,-0.1616 -0.0504,-0.0231 -0.1591,-0.1732 -0.1901,-0.2156 -0.26,-0.381 -0.0777,-0.6581 -0.0777,-0.6581 0.2174,-0.0423 0.4851,-0.3194 0.3299,-0.5195 -0.0737,-0.0924 -0.3609,-0.2463 -0.5006,-0.3464 -0.1863,-0.1347 -0.2872,-0.4195 -0.3299,-0.4695 -0.1397,-0.2809 -0.1474,-0.5811 -0.1009,-0.8736 l 0.0466,-0.0924 c 0.0388,-0.077 0.392,0.0731 0.52,0.0924 0.1475,0.0231 0.5084,-0.0885 0.5976,-0.2617 0.1087,-0.1655 0.1902,-0.6312 0.1708,-0.789 l -0.3803,0.1771 c -0.0544,0.0076 -0.1514,0.0038 -0.2212,-0.0039 -0.2329,-0.0231 -0.4696,-0.1924 -0.5511,-0.3271 -0.1358,-0.5311 0.1165,-1.1854 0.5821,-1.3239 0.2329,-0.1116 0.4385,-0.077 0.6403,-0.0039 0.1941,0.127 0.1785,0.2656 0.2406,0.4965 0.163,-0.127 0.2639,-0.2848 0.3997,-0.4272 0.0932,-0.1655 0.1785,-0.4772 0.1979,-0.6581 l -0.0737,-0.2194 c 0.0078,0 0.2057,-0.1847 0.0815,-0.3733 z M 51.9044,9.40587 51.5319,9.60984 c -0.0621,0.19628 0.097,0.37331 0.0388,0.42336 -0.0815,0.0269 -0.1669,-0.0116 -0.2794,-0.15396 -0.1126,-0.13855 -0.1863,-0.30019 -0.0466,-0.54265 0.1397,-0.24246 0.4269,-0.33482 0.6597,-0.23476 0.2329,0.10391 0.3376,0.29249 0.3648,0.43104 0.0039,0 -0.1009,-0.08082 -0.3648,-0.127 z m 2.6776,1.25843 c -0.0776,-0.15 -0.3686,-0.3848 -0.3686,-0.5041 0.2561,0 0.5122,-0.0347 0.7063,-0.1309 -0.0039,0.0039 -0.2135,0.408 -0.3377,0.635 z"
       fill="white"
       id="path24"
       style="fill:#da0000;fill-opacity:1" /></g></svg>
